<svg xmlns="http://www.w3.org/2000/svg" viewBox="0 0 280 280" width="280" height="280"><g transform="translate(7 8)"><path d="M 142 70 C 144 50 152 42 155 28" fill="none" stroke="#fff" stroke-width="29" stroke-linecap="round" stroke-linejoin="round"/><path d="M 154 32 Q 175.69 34.15 184 14 Q 162.31 11.85 154 32 Z" fill="#fff" stroke="#fff" stroke-width="20" stroke-linejoin="round"/><path d="M 150 44 Q 140.63 27.52 122 31 Q 131.37 47.48 150 44 Z" fill="#fff" stroke="#fff" stroke-width="20" stroke-linejoin="round"/><path d="M 118 168 L 70 190" fill="none" stroke="#fff" stroke-width="35" stroke-linecap="round" stroke-linejoin="round"/><path d="M 60 190 a 10 10 0 1 0 20 0 a 10 10 0 1 0 -20 0" fill="#fff" stroke="#fff" stroke-width="20" stroke-linejoin="round"/><path d="M 162 168 L 210 190" fill="none" stroke="#fff" stroke-width="35" stroke-linecap="round" stroke-linejoin="round"/><path d="M 200 190 a 10 10 0 1 0 20 0 a 10 10 0 1 0 -20 0" fill="#fff" stroke="#fff" stroke-width="20" stroke-linejoin="round"/><path d="M 94 206 Q 134 234 170 220" fill="none" stroke="#fff" stroke-width="35" stroke-linecap="round" stroke-linejoin="round"/><path d="M 186 206 Q 146 234 110 220" fill="none" stroke="#fff" stroke-width="35" stroke-linecap="round" stroke-linejoin="round"/><path d="M 159 220 a 13 9 0 1 0 26 0 a 13 9 0 1 0 -26 0" fill="#fff" stroke="#fff" stroke-width="20" stroke-linejoin="round"/><path d="M 95 220 a 13 9 0 1 0 26 0 a 13 9 0 1 0 -26 0" fill="#fff" stroke="#fff" stroke-width="20" stroke-linejoin="round"/><path d="M 86 138 C 86 76 108 64 140 64 C 172 64 194 76 194 138 C 194 192 174 208 140 208 C 106 208 86 192 86 138 Z" fill="#fff" stroke="#fff" stroke-width="20" stroke-linejoin="round"/><path d="M 106 124 q 12 13 24 0" fill="none" stroke="#fff" stroke-width="30" stroke-linecap="round" stroke-linejoin="round"/><path d="M 150 124 q 12 13 24 0" fill="none" stroke="#fff" stroke-width="30" stroke-linecap="round" stroke-linejoin="round"/><path d="M 126 154 q 14 15 28 0" fill="none" stroke="#fff" stroke-width="30" stroke-linecap="round" stroke-linejoin="round"/></g><g><path d="M 142 70 C 144 50 152 42 155 28" fill="none" stroke="#2bbd9b" stroke-width="9" stroke-linecap="round" stroke-linejoin="round"/><path d="M 154 32 Q 175.69 34.15 184 14 Q 162.31 11.85 154 32 Z" fill="#2bbd9b"/><path d="M 150 44 Q 140.63 27.52 122 31 Q 131.37 47.48 150 44 Z" fill="#2bbd9b"/><path d="M 118 168 L 70 190" fill="none" stroke="#053329" stroke-width="15" stroke-linecap="round" stroke-linejoin="round"/><path d="M 60 190 a 10 10 0 1 0 20 0 a 10 10 0 1 0 -20 0" fill="#053329"/><path d="M 162 168 L 210 190" fill="none" stroke="#053329" stroke-width="15" stroke-linecap="round" stroke-linejoin="round"/><path d="M 200 190 a 10 10 0 1 0 20 0 a 10 10 0 1 0 -20 0" fill="#053329"/><path d="M 94 206 Q 134 234 170 220" fill="none" stroke="#053329" stroke-width="15" stroke-linecap="round" stroke-linejoin="round"/><path d="M 186 206 Q 146 234 110 220" fill="none" stroke="#053329" stroke-width="15" stroke-linecap="round" stroke-linejoin="round"/><path d="M 159 220 a 13 9 0 1 0 26 0 a 13 9 0 1 0 -26 0" fill="#053329"/><path d="M 95 220 a 13 9 0 1 0 26 0 a 13 9 0 1 0 -26 0" fill="#053329"/><path d="M 86 138 C 86 76 108 64 140 64 C 172 64 194 76 194 138 C 194 192 174 208 140 208 C 106 208 86 192 86 138 Z" fill="#2bbd9b"/><path d="M 106 124 q 12 13 24 0" fill="none" stroke="#053329" stroke-width="10" stroke-linecap="round" stroke-linejoin="round"/><path d="M 150 124 q 12 13 24 0" fill="none" stroke="#053329" stroke-width="10" stroke-linecap="round" stroke-linejoin="round"/><path d="M 126 154 q 14 15 28 0" fill="none" stroke="#053329" stroke-width="10" stroke-linecap="round" stroke-linejoin="round"/></g></svg>