<svg xmlns="http://www.w3.org/2000/svg" viewBox="0 0 280 280" width="280" height="280"><defs><linearGradient id="ledger0" x1="0" y1="0" x2="0" y2="1"><stop offset="0" stop-color="#ffd6e8"/><stop offset="0.48" stop-color="#ff5f9e"/><stop offset="1" stop-color="#b81a58"/></linearGradient><linearGradient id="ledger1" x1="0" y1="0" x2="0" y2="1"><stop offset="0" stop-color="#cfe9ff"/><stop offset="0.5" stop-color="#4aa3f0"/><stop offset="1" stop-color="#1a53b8"/></linearGradient><linearGradient id="ledger2" x1="0" y1="0" x2="0" y2="1"><stop offset="0" stop-color="#3f9e6e"/><stop offset="0.5" stop-color="#1d6b45"/><stop offset="1" stop-color="#0c3a24"/></linearGradient><linearGradient id="ledger3" x1="0" y1="0" x2="0" y2="1"><stop offset="0" stop-color="#2f8a5c"/><stop offset="1" stop-color="#0d3f27"/></linearGradient><linearGradient id="ledger4" x1="0" y1="0" x2="0" y2="1"><stop offset="0" stop-color="#fffefa"/><stop offset="1" stop-color="#ece0c8"/></linearGradient></defs><g transform="translate(22 10)"><path d="M 60 100 h 18 a 4 4 0 0 1 4 4 v 114 a 4 4 0 0 1 -4 4 h -18 a 4 4 0 0 1 -4 -4 v -114 a 4 4 0 0 1 4 -4 Z" fill="#0b0b0b"/><path d="M 82 82 h 14 a 4 4 0 0 1 4 4 v 132 a 4 4 0 0 1 -4 4 h -14 a 4 4 0 0 1 -4 -4 v -132 a 4 4 0 0 1 4 -4 Z" fill="#0b0b0b"/><path d="M 101 58 h 28 a 5 5 0 0 1 5 5 v 154 a 5 5 0 0 1 -5 5 h -28 a 5 5 0 0 1 -5 -5 v -154 a 5 5 0 0 1 5 -5 Z" fill="#0b0b0b"/><path d="M 141 86 h 30 a 5 5 0 0 1 5 5 v 126 a 5 5 0 0 1 -5 5 h -30 a 5 5 0 0 1 -5 -5 v -126 a 5 5 0 0 1 5 -5 Z" fill="#0b0b0b"/><path d="M 179 96 h 34 a 5 5 0 0 1 5 5 v 118 a 5 5 0 0 1 -5 5 h -34 a 5 5 0 0 1 -5 -5 v -118 a 5 5 0 0 1 5 -5 Z" fill="#0b0b0b" transform="rotate(15 180 222)"/></g><g><path d="M 60 100 h 18 a 4 4 0 0 1 4 4 v 114 a 4 4 0 0 1 -4 4 h -18 a 4 4 0 0 1 -4 -4 v -114 a 4 4 0 0 1 4 -4 Z" fill="url(#ledger0)"/><path d="M 82 82 h 14 a 4 4 0 0 1 4 4 v 132 a 4 4 0 0 1 -4 4 h -14 a 4 4 0 0 1 -4 -4 v -132 a 4 4 0 0 1 4 -4 Z" fill="url(#ledger1)"/><path d="M 101 58 h 28 a 5 5 0 0 1 5 5 v 154 a 5 5 0 0 1 -5 5 h -28 a 5 5 0 0 1 -5 -5 v -154 a 5 5 0 0 1 5 -5 Z" fill="url(#ledger2)"/><path d="M 103 62 h 24 a 3 3 0 0 1 3 3 v 2 a 3 3 0 0 1 -3 3 h -24 a 3 3 0 0 1 -3 -3 v -2 a 3 3 0 0 1 3 -3 Z" fill="#a8e0c4" opacity="0.85"/><path d="M 141 86 h 30 a 5 5 0 0 1 5 5 v 126 a 5 5 0 0 1 -5 5 h -30 a 5 5 0 0 1 -5 -5 v -126 a 5 5 0 0 1 5 -5 Z" fill="url(#ledger3)"/><path d="M 143 90 h 26 a 3 3 0 0 1 3 3 v 2 a 3 3 0 0 1 -3 3 h -26 a 3 3 0 0 1 -3 -3 v -2 a 3 3 0 0 1 3 -3 Z" fill="#9fd8bd" opacity="0.85"/><path d="M 179 96 h 34 a 5 5 0 0 1 5 5 v 118 a 5 5 0 0 1 -5 5 h -34 a 5 5 0 0 1 -5 -5 v -118 a 5 5 0 0 1 5 -5 Z" fill="url(#ledger4)" transform="rotate(15 180 222)"/></g></svg>