<svg xmlns="http://www.w3.org/2000/svg" viewBox="0 0 280 280" width="280" height="280"><defs><linearGradient id="verified0" x1="0" y1="0" x2="0" y2="1"><stop offset="0" stop-color="#ffb694"/><stop offset="0.5" stop-color="#f0432f"/><stop offset="1" stop-color="#8e1410"/></linearGradient><radialGradient id="verified1" cx="0.38" cy="0.3" r="0.8"><stop offset="0" stop-color="#cfe9ff"/><stop offset="0.5" stop-color="#4aa3f0"/><stop offset="1" stop-color="#1a53b8"/></radialGradient><linearGradient id="verified2" x1="0" y1="0" x2="0" y2="1"><stop offset="0" stop-color="#fffefa"/><stop offset="1" stop-color="#ece0c8"/></linearGradient><linearGradient id="verified3" x1="0" y1="0" x2="0" y2="1"><stop offset="0" stop-color="#ffe0bd"/><stop offset="0.5" stop-color="#f59b3d"/><stop offset="1" stop-color="#c2570f"/></linearGradient></defs><g transform="translate(22 10)"><path d="M 68 140 a 78 88 0 1 0 156 0 a 78 88 0 1 0 -156 0 Z" fill="#0b0b0b"/><path d="M 58 140 a 78 88 0 1 0 156 0 a 78 88 0 1 0 -156 0 Z" fill="#0b0b0b"/></g><g><path d="M 68 140 a 78 88 0 1 0 156 0 a 78 88 0 1 0 -156 0 Z" fill="url(#verified0)"/><path d="M 58 140 a 78 88 0 1 0 156 0 a 78 88 0 1 0 -156 0 Z" fill="url(#verified1)"/><path d="M 74 96 a 22 12 0 1 0 44 0 a 22 12 0 1 0 -44 0 Z" fill="#ffffff" opacity="0.9"/><path d="M 136 188 a 26 13 0 1 0 52 0 a 26 13 0 1 0 -52 0 Z" fill="#ffffff" opacity="0.9"/><path d="M 158 106 a 16 9 0 1 0 32 0 a 16 9 0 1 0 -32 0 Z" fill="#ffffff" opacity="0.8"/><path d="M 94 138 L 116 184 L 184 90 L 184 116 L 116 206 L 94 162 Z" fill="#132c26"/><path d="M 100 128 L 120 170 L 190 80 L 190 104 L 120 192 L 100 152 Z" fill="url(#verified2)"/><path d="M 190 80 L 170 66 L 146 94 L 166 108 Z" fill="url(#verified3)"/></g></svg>