<svg xmlns="http://www.w3.org/2000/svg" viewBox="0 0 280 280" width="280" height="280"><defs><linearGradient id="piggy0" x1="0" y1="0" x2="0" y2="1"><stop offset="0" stop-color="#ffc0e0"/><stop offset="0.5" stop-color="#ff72b4"/><stop offset="1" stop-color="#d63f8c"/></linearGradient><linearGradient id="piggy1" x1="0" y1="0" x2="0" y2="1"><stop offset="0" stop-color="#ffc0e0"/><stop offset="0.5" stop-color="#ff72b4"/><stop offset="1" stop-color="#d63f8c"/></linearGradient><radialGradient id="piggy2" cx="0.5" cy="0.5" r="0.5"><stop offset="0" stop-color="#fff" stop-opacity="0.6"/><stop offset="1" stop-color="#fff" stop-opacity="0"/></radialGradient></defs><g transform="translate(7 8)"><path d="M 54 144 a 86 66 0 1 0 172 0 a 86 66 0 1 0 -172 0" fill="#fff" stroke="#fff" stroke-width="29" stroke-linecap="round" stroke-linejoin="round"/><path d="M 88 82 Q 132 96 90 124 Q 78 102 88 82 Z" fill="#fff" stroke="#fff" stroke-width="27" stroke-linecap="round" stroke-linejoin="round"/><path d="M 178 150 a 30 26 0 1 0 60 0 a 30 26 0 1 0 -60 0" fill="#fff" stroke="#fff" stroke-width="27" stroke-linecap="round" stroke-linejoin="round"/><path d="M 197 146 a 5 5 0 1 0 10 0 a 5 5 0 1 0 -10 0" fill="#fff" stroke="#fff" stroke-width="20" stroke-linecap="round" stroke-linejoin="round"/><path d="M 213 152 a 5 5 0 1 0 10 0 a 5 5 0 1 0 -10 0" fill="#fff" stroke="#fff" stroke-width="20" stroke-linecap="round" stroke-linejoin="round"/><path d="M 155 118 a 7 7 0 1 0 14 0 a 7 7 0 1 0 -14 0" fill="#fff" stroke="#fff" stroke-width="20" stroke-linecap="round" stroke-linejoin="round"/><path d="M 106 96 h 46" fill="none" stroke="#fff" stroke-width="32" stroke-linecap="round" stroke-linejoin="round"/><path d="M 96 198 v 30 M 150 202 v 26" fill="none" stroke="#fff" stroke-width="40" stroke-linecap="round" stroke-linejoin="round"/><path d="M 66 120 a 44 22 0 1 0 88 0 a 44 22 0 1 0 -88 0" fill="#fff" stroke="#fff" stroke-width="20" stroke-linecap="round" stroke-linejoin="round" transform="rotate(-16 110 120)"/></g><g><path d="M 54 144 a 86 66 0 1 0 172 0 a 86 66 0 1 0 -172 0" fill="url(#piggy0)" stroke="#053329" stroke-width="9" stroke-linecap="round" stroke-linejoin="round"/><path d="M 88 82 Q 132 96 90 124 Q 78 102 88 82 Z" fill="url(#piggy1)" stroke="#053329" stroke-width="7" stroke-linecap="round" stroke-linejoin="round"/><path d="M 178 150 a 30 26 0 1 0 60 0 a 30 26 0 1 0 -60 0" fill="#ffb0d8" stroke="#053329" stroke-width="7" stroke-linecap="round" stroke-linejoin="round"/><path d="M 197 146 a 5 5 0 1 0 10 0 a 5 5 0 1 0 -10 0" fill="#053329"/><path d="M 213 152 a 5 5 0 1 0 10 0 a 5 5 0 1 0 -10 0" fill="#053329"/><path d="M 155 118 a 7 7 0 1 0 14 0 a 7 7 0 1 0 -14 0" fill="#053329"/><path d="M 106 96 h 46" fill="none" stroke="#053329" stroke-width="12" stroke-linecap="round" stroke-linejoin="round"/><path d="M 96 198 v 30 M 150 202 v 26" fill="none" stroke="#053329" stroke-width="20" stroke-linecap="round" stroke-linejoin="round"/><path d="M 66 120 a 44 22 0 1 0 88 0 a 44 22 0 1 0 -88 0" fill="url(#piggy2)" transform="rotate(-16 110 120)"/></g></svg>