<svg xmlns="http://www.w3.org/2000/svg" viewBox="0 0 280 280" width="280" height="280"><defs><linearGradient id="rocket0" x1="0" y1="0" x2="0" y2="1"><stop offset="0" stop-color="#ffffff"/><stop offset="0.35" stop-color="#dfe8f2"/><stop offset="0.55" stop-color="#94a9c1"/><stop offset="1" stop-color="#e8eef5"/></linearGradient><linearGradient id="rocket1" x1="0" y1="0" x2="0" y2="1"><stop offset="0" stop-color="#ffc0e0"/><stop offset="0.5" stop-color="#ff72b4"/><stop offset="1" stop-color="#d63f8c"/></linearGradient><linearGradient id="rocket2" x1="0" y1="0" x2="0" y2="1"><stop offset="0" stop-color="#ffc0e0"/><stop offset="0.5" stop-color="#ff72b4"/><stop offset="1" stop-color="#d63f8c"/></linearGradient><linearGradient id="rocket3" x1="0" y1="0" x2="0" y2="1"><stop offset="0" stop-color="#7fe8ff"/><stop offset="0.5" stop-color="#2f8fe6"/><stop offset="1" stop-color="#5b46d6"/></linearGradient><linearGradient id="rocket4" x1="0" y1="0" x2="0" y2="1"><stop offset="0" stop-color="#fff27a"/><stop offset="0.45" stop-color="#ff9b3d"/><stop offset="1" stop-color="#ff4f9b"/></linearGradient></defs><g transform="translate(7 8)"><path d="M 140 32 C 182 74 186 136 180 180
          L 100 180 C 94 136 98 74 140 32 Z" fill="#fff" stroke="#fff" stroke-width="29" stroke-linecap="round" stroke-linejoin="round"/><path d="M 100 144 L 60 192 L 100 184 Z" fill="#fff" stroke="#fff" stroke-width="27" stroke-linecap="round" stroke-linejoin="round"/><path d="M 180 144 L 220 192 L 180 184 Z" fill="#fff" stroke="#fff" stroke-width="27" stroke-linecap="round" stroke-linejoin="round"/><path d="M 116 98 a 24 24 0 1 0 48 0 a 24 24 0 1 0 -48 0" fill="#fff" stroke="#fff" stroke-width="27" stroke-linecap="round" stroke-linejoin="round"/><path d="M 120 90 a 12 7 0 1 0 24 0 a 12 7 0 1 0 -24 0" fill="#fff" stroke="#fff" stroke-width="20" stroke-linecap="round" stroke-linejoin="round" transform="rotate(-30 132 90)"/><path d="M 114 186 C 122 232 158 232 166 186 Z" fill="#fff" stroke="#fff" stroke-width="27" stroke-linecap="round" stroke-linejoin="round"/></g><g><path d="M 140 32 C 182 74 186 136 180 180
          L 100 180 C 94 136 98 74 140 32 Z" fill="url(#rocket0)" stroke="#053329" stroke-width="9" stroke-linecap="round" stroke-linejoin="round"/><path d="M 100 144 L 60 192 L 100 184 Z" fill="url(#rocket1)" stroke="#053329" stroke-width="7" stroke-linecap="round" stroke-linejoin="round"/><path d="M 180 144 L 220 192 L 180 184 Z" fill="url(#rocket2)" stroke="#053329" stroke-width="7" stroke-linecap="round" stroke-linejoin="round"/><path d="M 116 98 a 24 24 0 1 0 48 0 a 24 24 0 1 0 -48 0" fill="url(#rocket3)" stroke="#053329" stroke-width="7" stroke-linecap="round" stroke-linejoin="round"/><path d="M 120 90 a 12 7 0 1 0 24 0 a 12 7 0 1 0 -24 0" fill="#fff" opacity="0.85" transform="rotate(-30 132 90)"/><path d="M 114 186 C 122 232 158 232 166 186 Z" fill="url(#rocket4)" stroke="#053329" stroke-width="7" stroke-linecap="round" stroke-linejoin="round"/></g></svg>