<svg xmlns="http://www.w3.org/2000/svg" viewBox="0 0 280 280" width="280" height="280"><defs><linearGradient id="spark0" x1="0" y1="0" x2="0" y2="1"><stop offset="0" stop-color="#ffffff"/><stop offset="0.35" stop-color="#dfe8f2"/><stop offset="0.55" stop-color="#94a9c1"/><stop offset="1" stop-color="#e8eef5"/></linearGradient><linearGradient id="spark1" x1="0" y1="0" x2="0" y2="1"><stop offset="0" stop-color="#ffc0e0"/><stop offset="0.5" stop-color="#ff72b4"/><stop offset="1" stop-color="#d63f8c"/></linearGradient><linearGradient id="spark2" x1="0" y1="0" x2="0" y2="1"><stop offset="0" stop-color="#7fe8ff"/><stop offset="0.5" stop-color="#2f8fe6"/><stop offset="1" stop-color="#5b46d6"/></linearGradient></defs><g transform="translate(7 8)"><path d="M 134 46 Q 149 117 220 132 Q 149 147 134 218 Q 119 147 48 132 Q 119 117 134 46 Z" fill="#fff" stroke="#fff" stroke-width="29" stroke-linecap="round" stroke-linejoin="round"/><path d="M 202 154 Q 209 187 242 194 Q 209 201 202 234 Q 195 201 162 194 Q 195 187 202 154 Z" fill="#fff" stroke="#fff" stroke-width="27" stroke-linecap="round" stroke-linejoin="round"/><path d="M 70 172 Q 76 196 100 202 Q 76 208 70 232 Q 64 208 40 202 Q 64 196 70 172 Z" fill="#fff" stroke="#fff" stroke-width="26" stroke-linecap="round" stroke-linejoin="round"/></g><g><path d="M 134 46 Q 149 117 220 132 Q 149 147 134 218 Q 119 147 48 132 Q 119 117 134 46 Z" fill="url(#spark0)" stroke="#053329" stroke-width="9" stroke-linecap="round" stroke-linejoin="round"/><path d="M 202 154 Q 209 187 242 194 Q 209 201 202 234 Q 195 201 162 194 Q 195 187 202 154 Z" fill="url(#spark1)" stroke="#053329" stroke-width="7" stroke-linecap="round" stroke-linejoin="round"/><path d="M 70 172 Q 76 196 100 202 Q 76 208 70 232 Q 64 208 40 202 Q 64 196 70 172 Z" fill="url(#spark2)" stroke="#053329" stroke-width="6" stroke-linecap="round" stroke-linejoin="round"/></g></svg>